<?xml version="1.0" encoding="utf-8"?>
<!-- Generator: Adobe Illustrator 22.0.1, SVG Export Plug-In . SVG Version: 6.00 Build 0)  -->
<svg version="1.1" xmlns="http://www.w3.org/2000/svg" xmlns:xlink="http://www.w3.org/1999/xlink" x="0px" y="0px"
	 viewBox="0 0 525.2 157.5" style="enable-background:new 0 0 525.2 157.5;" xml:space="preserve">
<g id="Layer_1">
</g>
<g id="Layer_2">
	<g>
		<g>
			<g>
				<polygon points="17.3,143.1 9.4,143.1 9.4,131.1 17.3,131.1 17.3,132.4 10.7,132.4 10.7,136.3 15.7,136.3 15.7,137.7 
					10.7,137.7 10.7,141.8 17.3,141.8 				"/>
			</g>
			<g>
				<polygon points="24.1,143.1 22.8,143.1 22.8,131.1 30.3,131.1 30.3,132.4 24.1,132.4 24.1,137 28.7,137 28.7,138.4 24.1,138.4 
									"/>
			</g>
			<g>
				<polygon points="36.8,143.1 35.4,143.1 35.4,131.1 43,131.1 43,132.4 36.8,132.4 36.8,137 41.4,137 41.4,138.4 36.8,138.4 				
					"/>
			</g>
			<g>
				<polygon points="54.9,143.1 47.3,143.1 47.3,141.8 50.5,141.8 50.5,132.4 47.3,132.4 47.3,131.1 54.9,131.1 54.9,132.4 
					51.8,132.4 51.8,141.8 54.9,141.8 				"/>
			</g>
			<g>
				<path d="M67.9,143.1H64c-2.8,0-3.8-0.9-3.8-3.2v-5.6c0-2.3,1-3.2,3.8-3.2h3.9v1.4H64c-2.2,0-2.4,0.5-2.4,1.9v5.6
					c0,1.3,0.2,1.8,2.4,1.8h3.9V143.1z"/>
			</g>
			<g>
				<polygon points="80.1,143.1 72.6,143.1 72.6,141.8 75.7,141.8 75.7,132.4 72.6,132.4 72.6,131.1 80.1,131.1 80.1,132.4 
					77,132.4 77,141.8 80.1,141.8 				"/>
			</g>
			<g>
				<polygon points="93.6,143.1 85.7,143.1 85.7,131.1 93.6,131.1 93.6,132.4 87,132.4 87,136.3 92,136.3 92,137.7 87,137.7 
					87,141.8 93.6,141.8 				"/>
			</g>
			<g>
				<path d="M108.3,143.1h-1.4v-2.4l-6.6-7.4v9.8h-1.4v-11.2c0-0.5,0.4-0.8,0.8-0.8c0.4,0,0.5,0.2,0.7,0.3l6.4,7.2v-7.6h1.4V143.1z"
					/>
			</g>
			<g>
				<polygon points="118.7,143.1 117.3,143.1 117.3,132.4 113.2,132.4 113.2,131.1 122.8,131.1 122.8,132.4 118.7,132.4 				"/>
			</g>
			<g>
				<path d="M137.2,143.1h-5.6v-1.4h5.6c0.9,0,1.5-0.5,1.5-1.3v-1.2c0-1-0.3-1.1-0.8-1.2l-4.2-0.9c-0.7-0.1-1.7-0.5-1.7-2.1v-1.7
					c0-1.4,1.1-2.4,2.6-2.4h5v1.4h-5c-0.8,0-1.3,0.4-1.3,1.1v1.7c0,0.6,0.2,0.7,0.6,0.8l4.3,0.9c1.3,0.3,1.9,1.1,1.9,2.5v1.2
					C140,142,138.8,143.1,137.2,143.1z"/>
			</g>
			<g>
				<polygon points="153.6,143.1 145.6,143.1 145.6,131.1 153.6,131.1 153.6,132.4 147,132.4 147,136.3 151.9,136.3 151.9,137.7 
					147,137.7 147,141.8 153.6,141.8 				"/>
			</g>
			<g>
				<path d="M166.4,143.1h-3.9c-2.8,0-3.8-0.9-3.8-3.2v-5.6c0-2.3,1-3.2,3.8-3.2h3.9v1.4h-3.9c-2.2,0-2.4,0.5-2.4,1.9v5.6
					c0,1.3,0.2,1.8,2.4,1.8h3.9V143.1z"/>
			</g>
			<g>
				<path d="M176.3,143.4c-2,0-4.6-0.3-4.6-3.3v-9h1.4v9c0,0.9,0.3,1.9,3.3,1.9c3.3,0,3.3-1.3,3.3-1.9v-9h1.4v9
					C180.9,142.3,179.4,143.4,176.3,143.4z"/>
			</g>
			<g>
				<path d="M196.4,143.1h-1.4v-3.3c0-0.9-0.3-1.4-1.7-1.4h-5.1v4.7h-1.4v-12h5.2c1.8,0,2.9,1.1,2.9,2.9v1.4c0,0.6-0.1,1.3-0.4,1.9
					c1.2,0.3,1.8,1.2,1.8,2.6V143.1z M188.3,137.1h3.8c1.2,0,1.5-0.4,1.5-1.7V134c0-1-0.5-1.5-1.5-1.5h-3.8V137.1z"/>
			</g>
			<g>
				<polygon points="210.1,143.1 202.1,143.1 202.1,131.1 210.1,131.1 210.1,132.4 203.5,132.4 203.5,136.3 208.4,136.3 
					208.4,137.7 203.5,137.7 203.5,141.8 210.1,141.8 				"/>
			</g>
			<g>
				<path d="M227.7,143.1h-3.9c-2.8,0-3.8-0.9-3.8-3.2v-5.6c0-2.3,1-3.2,3.8-3.2h3.9v1.4h-3.9c-2.2,0-2.4,0.5-2.4,1.9v5.6
					c0,1.3,0.2,1.8,2.4,1.8h3.9V143.1z"/>
			</g>
			<g>
				<path d="M237.4,143.4c-3.1,0-4.6-1.1-4.6-3.3v-5.9c0-2.2,1.5-3.3,4.6-3.3c3.1,0,4.7,1.1,4.7,3.3v5.9
					C242,142.3,240.5,143.4,237.4,143.4z M237.4,132.2c-3.3,0-3.3,1.3-3.3,1.9v5.9c0,0.7,0,1.9,3.3,1.9c3.3,0,3.3-1.3,3.3-1.9v-5.9
					C240.7,133.5,240.7,132.2,237.4,132.2z"/>
			</g>
			<g>
				<path d="M259,143.1h-1.4l-0.1-10.7l-2.4,3.7c-0.5,0.8-0.8,1.2-1.7,1.2c-0.9,0-1.1-0.4-1.6-1.1l-2.6-3.8l0,10.7H248v-10.8
					c0-1.1,0.8-1.2,1.1-1.2h0.3c0.5,0,0.8,0.2,1.1,0.6l2.4,3.7c0.2,0.3,0.4,0.5,0.4,0.6l0.3,0c0.1,0,0.2-0.3,0.4-0.5l0.2,0.1l0,0
					l-0.2-0.1l2.5-3.7c0.2-0.4,0.6-0.6,1.1-0.6h0.3c0.7,0,1.1,0.5,1.1,1.2V143.1z"/>
			</g>
			<g>
				<path d="M266.7,143.1h-1.4v-12h4.9c3.2,0,3.6,1.9,3.6,3.3v1.5c0,1.5-0.4,3.3-3.6,3.3h-3.6V143.1z M266.7,137.8h3.6
					c2.1,0,2.2-0.8,2.2-1.9v-1.5c0-1.1-0.2-2-2.2-2h-3.6V137.8z"/>
			</g>
			<g>
				<path d="M283.8,143.4c-2,0-4.6-0.3-4.6-3.3v-9h1.4v9c0,0.9,0.3,1.9,3.3,1.9c3.3,0,3.3-1.3,3.3-1.9v-9h1.4v9
					C288.4,142.3,286.9,143.4,283.8,143.4z"/>
			</g>
			<g>
				<polygon points="298.7,143.1 297.4,143.1 297.4,132.4 293.3,132.4 293.3,131.1 302.9,131.1 302.9,132.4 298.7,132.4 				"/>
			</g>
			<g>
				<path d="M316.1,143.1h-1.4v-3.5h-6.7v3.5h-1.4v-4.9c0-0.8,0.1-1.5,0.4-2.2l1.3-3.3c0.3-0.8,0.7-1.7,2-1.7h2c1.3,0,1.7,0.9,2,1.7
					l1.4,3.3c0.3,0.7,0.4,1.4,0.4,2.2V143.1z M308.1,138.3l6.7,0c0-0.6-0.1-1.2-0.3-1.7l-1.4-3.3c-0.3-0.8-0.4-0.9-0.7-0.9h-2
					c-0.4,0-0.5,0.1-0.7,0.8l-1.3,3.3C308.2,137.1,308.1,137.6,308.1,138.3L308.1,138.3z"/>
			</g>
			<g>
				<polygon points="325.4,143.1 324.1,143.1 324.1,132.4 320,132.4 320,131.1 329.6,131.1 329.6,132.4 325.4,132.4 				"/>
			</g>
			<g>
				<polygon points="341.4,143.1 333.9,143.1 333.9,141.8 337,141.8 337,132.4 333.9,132.4 333.9,131.1 341.4,131.1 341.4,132.4 
					338.4,132.4 338.4,141.8 341.4,141.8 				"/>
			</g>
			<g>
				<path d="M351.3,143.4c-3.1,0-4.6-1.1-4.6-3.3v-5.9c0-2.2,1.5-3.3,4.6-3.3c3.1,0,4.7,1.1,4.7,3.3v5.9
					C356,142.3,354.5,143.4,351.3,143.4z M351.3,132.2c-3.3,0-3.3,1.3-3.3,1.9v5.9c0,0.7,0,1.9,3.3,1.9c3.3,0,3.3-1.3,3.3-1.9v-5.9
					C354.7,133.5,354.7,132.2,351.3,132.2z"/>
			</g>
			<g>
				<path d="M371.2,143.1h-1.4v-2.4l-6.6-7.4v9.8h-1.4v-11.2c0-0.5,0.4-0.8,0.8-0.8c0.4,0,0.5,0.2,0.7,0.3l6.4,7.2v-7.6h1.4V143.1z"
					/>
			</g>
			<g>
				<polygon points="383.5,143.1 382.1,143.1 382.1,131.1 389.7,131.1 389.7,132.4 383.5,132.4 383.5,137 388,137 388,138.4 
					383.5,138.4 				"/>
			</g>
			<g>
				<path d="M404.2,143.1h-1.4v-3.3c0-0.9-0.3-1.4-1.7-1.4h-5.1v4.7h-1.4v-12h5.2c1.8,0,2.9,1.1,2.9,2.9v1.4c0,0.6-0.1,1.3-0.4,1.9
					c1.2,0.3,1.8,1.2,1.8,2.6V143.1z M396.1,137.1h3.8c1.2,0,1.5-0.4,1.5-1.7V134c0-1-0.5-1.5-1.5-1.5h-3.8V137.1z"/>
			</g>
			<g>
				<path d="M419,143.1h-1.4v-3.5h-6.7v3.5h-1.4v-4.9c0-0.8,0.1-1.5,0.4-2.2l1.3-3.3c0.3-0.8,0.7-1.7,2-1.7h2c1.3,0,1.7,0.9,2,1.7
					l1.4,3.3c0.3,0.7,0.4,1.4,0.4,2.2V143.1z M410.9,138.3l6.7,0c0-0.6-0.1-1.2-0.3-1.7l-1.4-3.3c-0.3-0.8-0.4-0.9-0.7-0.9h-2
					c-0.4,0-0.5,0.1-0.7,0.8l-1.3,3.3C411,137.1,410.9,137.6,410.9,138.3L410.9,138.3z"/>
			</g>
			<g>
				<path d="M435.8,143.1h-1.4l-0.1-10.7l-2.4,3.7c-0.5,0.8-0.8,1.2-1.7,1.2c-0.9,0-1.1-0.4-1.6-1.1l-2.6-3.8l0,10.7h-1.4v-10.8
					c0-1.1,0.8-1.2,1.1-1.2h0.3c0.5,0,0.9,0.2,1.1,0.6l2.4,3.7c0.2,0.3,0.4,0.5,0.4,0.6l0.3,0c0.1,0,0.2-0.3,0.4-0.5l0-0.1l2.5-3.7
					c0.2-0.4,0.6-0.6,1.1-0.6h0.3c0.3,0,1.1,0.1,1.1,1.2V143.1z"/>
			</g>
			<g>
				<polygon points="450,143.1 442.1,143.1 442.1,131.1 450,131.1 450,132.4 443.5,132.4 443.5,136.3 448.4,136.3 448.4,137.7 
					443.5,137.7 443.5,141.8 450,141.8 				"/>
			</g>
			<g>
				<path d="M464.6,143.1c-0.7,0-1.2-0.3-1.3-0.7l-1.6-3.7c-0.2-0.4-0.3-0.5-0.3-0.5l-0.9,0l0,0c0,0-0.1,0.1-0.3,0.5l-1.7,3.7
					c-0.2,0.4-0.6,0.7-1.2,0.7c-0.4,0-1.1-0.1-1.4-1.1l-0.5-2.3c-0.1-0.6-0.1-1.5-0.1-2.2v-6.5h1.4v6.5c0,0.6,0,1.5,0.1,1.9l0.5,2.3
					l1.7-3.7c0.3-0.7,0.7-1.3,1.5-1.3h0.9c0.9,0,1.2,0.6,1.5,1.3l1.7,3.7l0.5-2.3c0.1-0.4,0.1-1.4,0.1-1.9v-6.5h1.4v6.5
					c0,0.6,0,1.6-0.1,2.1l-0.5,2.3C465.7,142.7,465.2,143.1,464.6,143.1z"/>
			</g>
			<g>
				<path d="M476.8,143.4c-3.1,0-4.6-1.1-4.6-3.3v-5.9c0-2.2,1.5-3.3,4.6-3.3c3.1,0,4.7,1.1,4.7,3.3v5.9
					C481.5,142.3,479.9,143.4,476.8,143.4z M476.8,132.2c-3.3,0-3.3,1.3-3.3,1.9v5.9c0,0.7,0,1.9,3.3,1.9c3.3,0,3.3-1.3,3.3-1.9
					v-5.9C480.1,133.5,480.1,132.2,476.8,132.2z"/>
			</g>
			<g>
				<path d="M496.9,143.1h-1.4v-3.3c0-0.9-0.3-1.4-1.7-1.4h-5.1v4.7h-1.4v-12h5.2c1.8,0,2.9,1.1,2.9,2.9v1.4c0,0.6-0.1,1.3-0.4,1.9
					c1.2,0.3,1.8,1.2,1.8,2.6V143.1z M488.8,137.1h3.8c1.2,0,1.5-0.4,1.5-1.7V134c0-1-0.5-1.5-1.5-1.5h-3.8V137.1z"/>
			</g>
			<g>
				<path d="M511.8,143.1h-1.4V139c0-0.7-0.1-1.2-1.7-1.2H504v5.3h-1.4v-12h1.4v5.4h3.4l2.3-5.4h1.5l-2.3,5.4c2,0,3,0.9,3,2.6V143.1
					z"/>
			</g>
		</g>
		<g>
			<path d="M11.6,94.2h-2V18.9h44.7v2H11.6v39h31.5v2H11.6V94.2z"/>
		</g>
		<g>
			<path d="M152.9,94.2h-2V75.4c0-9.1-4.8-13.3-15.1-13.3H97v32.1h-2V18.9h31.8c10.2,0,16.1,5.9,16.1,16.1v9.5
				c0,10.6-3.2,14.1-7,15.8c11.2,0,16.9,5.1,16.9,15.1V94.2z M97,60.3h29.9c11.7,0,14.1-6,14.1-15.6V35c0-9.1-5-14.1-14.1-14.1H97
				V60.3z"/>
		</g>
		<g>
			<path d="M245.1,94.2h-47.2V18.9h47.2v2h-45.2V55h34v2h-34v35.2h45.2V94.2z"/>
		</g>
		<g>
			<path d="M318,94.2h-34.7v-2H318c8.2,0,13.7-4.9,13.7-12.3v-8c0-8.4-3.1-10.8-8.2-11.9l-29.2-5.9c-5-1-8.4-3.3-8.4-10.9V31.8
				c0-7.7,5.8-12.9,14.4-12.9h31v2h-31c-7.4,0-12.4,4.4-12.4,10.9v11.3c0,6.4,2.7,8.2,6.8,9l29.2,5.9c8.6,1.7,9.8,7.7,9.8,13.8v8
				C333.7,88.5,327.4,94.2,318,94.2z"/>
		</g>
		<g>
			<path d="M422.5,94.2h-23.4c-17.2,0-22.4-4.2-22.4-18.1V37.3c0-13.9,5.4-18.4,22.4-18.4h23.4v2h-23.4c-15.7,0-20.5,3.8-20.5,16.5
				v38.7c0,11,3.1,16.2,20.5,16.2h23.4V94.2z"/>
		</g>
		<path d="M519.6,46.2l-6-24.2l-22.9-5.3l-22.2,5.2c0,0,0,0,0,0l-0.5,0.1l-5.9,24.4l0,20.6l5.9,24.2l22.7,5.3l22.9-5.3l6-24.4
			L519.6,46.2z M512.6,88.6l-8.9-13.7l13.9-6.6L512.6,88.6z M464.1,68.3l13.9,6.6l-8.9,13.7L464.1,68.3z M469.1,24.7l8.9,13.7
			L464.2,45L469.1,24.7z M517.7,45l-14-6.6l8.9-13.7L517.7,45z M493.3,56.6l24.8-9l0,18.1L493.3,56.6z M516.8,66.9l-13.9,6.6
			l-10-15.3L516.8,66.9z M492.8,55.1l10-15.3l13.9,6.6L492.8,55.1z M502.2,37.7l-9.5-4.5l18-8.5L502.2,37.7z M501.3,39l-10.5,16.1
			l-10.5-16.1l10.5-5L501.3,39z M463.8,65.7l0-18.1l24.8,9.1L463.8,65.7z M465.1,46.3l13.8-6.6l9.9,15.2L465.1,46.3z M488.8,58.3
			l-9.9,15.2l-13.8-6.6L488.8,58.3z M479.5,37.7L471,24.6l18,8.5L479.5,37.7z M479.5,75.6l9.5,4.5l-18,8.5L479.5,75.6z M480.4,74.2
			l10.5-16.1l10.5,16.1l-10.5,5L480.4,74.2z M502.2,75.6l8.5,13l-18-8.5L502.2,75.6z M510.5,22.9l-19.6,9.3l-19.7-9.3l19.6-4.6
			L510.5,22.9z M471.2,90.3l19.7-9.3l19.6,9.3l-19.7,4.6L471.2,90.3z"/>
	</g>
</g>
<g id="Layer_3">
</g>
<g id="Layer_4">
</g>
</svg>
